<svg width="30" height="24" viewBox="0 0 30 24" fill="none" xmlns="http://www.w3.org/2000/svg">
<g clip-path="url(#clip0_2112_301)">
<path d="M17.2211 8.3844C17.2211 8.62213 17.1776 8.84537 17.0906 9.05411C17.0036 9.26285 16.879 9.4455 16.7166 9.60205C16.5543 9.75861 16.3716 9.88037 16.1687 9.96735C15.9657 10.0543 15.7425 10.1007 15.499 10.1065H6.42746L8.87146 12.5418C9.03381 12.6984 9.15848 12.8839 9.24545 13.0984C9.33243 13.313 9.37592 13.5333 9.37592 13.7595C9.37592 13.9972 9.33243 14.2204 9.24545 14.4292C9.15848 14.6379 9.03381 14.8206 8.87146 14.9771C8.70911 15.1337 8.52646 15.2554 8.32352 15.3424C8.12057 15.4294 7.89734 15.4758 7.65381 15.4816C7.42767 15.4816 7.21024 15.4381 7.0015 15.3511C6.79276 15.2641 6.60431 15.1395 6.43616 14.9771L1.08719 9.61945C0.895844 9.4281 0.759583 9.23096 0.678406 9.02802C0.597229 8.82507 0.556641 8.58734 0.556641 8.31482C0.556641 8.08868 0.605927 7.87704 0.704498 7.6799C0.80307 7.48276 0.930634 7.30591 1.08719 7.14935L6.43616 1.79169C6.59851 1.62933 6.78696 1.50467 7.0015 1.41769C7.21603 1.33072 7.43637 1.28723 7.66251 1.28723C7.90024 1.28723 8.12347 1.33362 8.33221 1.42639C8.54095 1.51917 8.7207 1.64383 8.87146 1.80038C9.02222 1.95694 9.14398 2.13959 9.23676 2.34833C9.32953 2.55707 9.37592 2.7803 9.37592 3.01804C9.37592 3.24417 9.33243 3.46161 9.24545 3.67035C9.15848 3.87909 9.03381 4.06464 8.87146 4.22699L6.42746 6.66229H15.499C15.7367 6.66229 15.9599 6.70578 16.1687 6.79276C16.3774 6.87973 16.5601 7.00439 16.7166 7.16675C16.8732 7.3291 16.9949 7.51175 17.0819 7.71469C17.1689 7.91763 17.2153 8.14087 17.2211 8.3844Z" fill="#EEEBE5"/>
</g>
<g clip-path="url(#clip1_2112_301)">
<path d="M12.7789 15.0531C12.7789 14.8154 12.8224 14.5921 12.9094 14.3834C12.9964 14.1747 13.121 13.992 13.2834 13.8355C13.4457 13.6789 13.6284 13.5571 13.8313 13.4702C14.0343 13.3832 14.2575 13.3368 14.501 13.331L23.5725 13.331L21.1285 10.8957C20.9662 10.7391 20.8415 10.5536 20.7545 10.3391C20.6676 10.1245 20.6241 9.90418 20.6241 9.67804C20.6241 9.44031 20.6676 9.21707 20.7545 9.00833C20.8415 8.79959 20.9662 8.61694 21.1285 8.46039C21.2909 8.30383 21.4735 8.18207 21.6765 8.09509C21.8794 8.00812 22.1027 7.96173 22.3462 7.95593C22.5723 7.95593 22.7898 7.99942 22.9985 8.0864C23.2072 8.17337 23.3957 8.29804 23.5638 8.46039L28.9128 13.8181C29.1042 14.0094 29.2404 14.2065 29.3216 14.4095C29.4028 14.6124 29.4434 14.8502 29.4434 15.1227C29.4434 15.3488 29.3941 15.5605 29.2955 15.7576C29.1969 15.9547 29.0694 16.1316 28.9128 16.2881L23.5638 21.6458C23.4015 21.8082 23.213 21.9328 22.9985 22.0198C22.784 22.1068 22.5636 22.1503 22.3375 22.1503C22.0998 22.1503 21.8765 22.1039 21.6678 22.0111C21.459 21.9183 21.2793 21.7937 21.1285 21.6371C20.9778 21.4806 20.856 21.2979 20.7632 21.0892C20.6705 20.8804 20.6241 20.6572 20.6241 20.4195C20.6241 20.1933 20.6676 19.9759 20.7545 19.7672C20.8415 19.5584 20.9662 19.3729 21.1285 19.2105L23.5725 16.7752L14.501 16.7752C14.2633 16.7752 14.0401 16.7317 13.8313 16.6447C13.6226 16.5578 13.4399 16.4331 13.2834 16.2708C13.1268 16.1084 13.0051 15.9258 12.9181 15.7228C12.8311 15.5199 12.7847 15.2966 12.7789 15.0531Z" fill="#EEEBE5"/>
</g>
<defs>
<clipPath id="clip0_2112_301">
<rect width="17.8125" height="17.8125" fill="white"/>
</clipPath>
<clipPath id="clip1_2112_301">
<rect width="17.8125" height="17.8125" fill="white" transform="translate(30 23.4375) rotate(180)"/>
</clipPath>
</defs>
</svg>
