<svg width="24" height="24" viewBox="0 0 24 24" fill="none" xmlns="http://www.w3.org/2000/svg">
<g clip-path="url(#clip0_2112_311)">
<path d="M12 1.01953C12.9922 1.01953 13.9765 1.05078 14.9531 1.11328C15.9297 1.17578 16.9101 1.3125 17.8945 1.52344C18.8711 1.72656 19.7539 2.07031 20.5429 2.55469C21.332 3.03906 22.0039 3.70312 22.5586 4.54688C23.0742 5.34375 23.4414 6.21484 23.6601 7.16016C23.8789 8.10547 23.9922 9.05078 24 9.99609C24 10.7617 23.9414 11.4844 23.8242 12.1641C23.707 12.8438 23.5117 13.4922 23.2383 14.1094C22.9648 14.7266 22.6133 15.3008 22.1836 15.832C21.7539 16.3633 21.2304 16.8672 20.6133 17.3438C19.4101 18.2656 18.2148 19.1758 17.0273 20.0742C15.8398 20.9727 14.6445 21.8828 13.4414 22.8047C13.2851 22.9219 13.1015 22.9805 12.8906 22.9805C12.7578 22.9805 12.6406 22.9531 12.539 22.8984C12.4375 22.8438 12.3437 22.7734 12.2578 22.6875C12.1719 22.6016 12.1094 22.5 12.0703 22.3828C12.0312 22.2656 12.0078 22.1445 12 22.0195V18.7148H9.02342C8.54685 18.7148 8.06248 18.6953 7.57029 18.6562C7.0781 18.6172 6.58592 18.5469 6.09373 18.4453C5.60154 18.3437 5.12889 18.2031 4.67576 18.0234C4.22264 17.8438 3.79295 17.6172 3.3867 17.3438C2.77732 16.9219 2.25779 16.4375 1.8281 15.8906C1.39842 15.3437 1.05076 14.75 0.785136 14.1094C0.519511 13.4687 0.320292 12.8047 0.18748 12.1172C0.0546672 11.4297 -0.00783285 10.7227 -2.0345e-05 9.99609C-2.0345e-05 9.02734 0.109355 8.08203 0.328105 7.16016C0.546855 6.23828 0.929667 5.36719 1.47654 4.54688C2.03904 3.69531 2.7031 3.03125 3.46873 2.55469C4.23435 2.07812 5.11326 1.73438 6.10545 1.52344C7.08201 1.32031 8.05857 1.1875 9.03514 1.125C10.0117 1.0625 11 1.02734 12 1.01953ZM12.75 12C12.9531 12 13.1289 11.9258 13.2773 11.7773C13.4258 11.6289 13.5 11.4531 13.5 11.25C13.5 11.0469 13.4258 10.8711 13.2773 10.7227C13.1289 10.5742 12.9531 10.5 12.75 10.5H6.74998C6.54685 10.5 6.37107 10.5742 6.22264 10.7227C6.0742 10.8711 5.99998 11.0469 5.99998 11.25C5.99998 11.4531 6.0742 11.6289 6.22264 11.7773C6.37107 11.9258 6.54685 12 6.74998 12H12.75ZM17.2031 9C17.4297 9 17.6172 8.93359 17.7656 8.80078C17.914 8.66797 17.9922 8.48438 18 8.25C18 8.02344 17.9258 7.84375 17.7773 7.71094C17.6289 7.57813 17.4375 7.50781 17.2031 7.5H6.79685C6.5781 7.5 6.3906 7.56641 6.23435 7.69922C6.0781 7.83203 5.99998 8.01562 5.99998 8.25C5.99998 8.47656 6.0781 8.65625 6.23435 8.78906C6.3906 8.92187 6.5781 8.99219 6.79685 9H17.2031Z" fill="#EEECE5"/>
</g>
<defs>
<clipPath id="clip0_2112_311">
<rect width="24" height="24" fill="white"/>
</clipPath>
</defs>
</svg>
