<svg width="24" height="25" viewBox="0 0 24 25" fill="none" xmlns="http://www.w3.org/2000/svg">
<g clip-path="url(#clip0_2524_612)">
<path d="M15.75 0.5C16.5078 0.5 17.2383 0.597656 17.9414 0.792969C18.6445 0.988281 19.3008 1.26563 19.9102 1.625C20.5195 1.98437 21.0742 2.41406 21.5742 2.91406C22.0742 3.41406 22.5078 3.97266 22.875 4.58984C23.2422 5.20703 23.5195 5.86328 23.707 6.55859C23.8945 7.25391 23.9922 7.98437 24 8.75C24 9.50781 23.9023 10.2383 23.707 10.9414C23.5117 11.6445 23.2344 12.3008 22.875 12.9102C22.5156 13.5195 22.0859 14.0742 21.5859 14.5742C21.0859 15.0742 20.5273 15.5078 19.9102 15.875C19.293 16.2422 18.6367 16.5195 17.9414 16.707C17.2461 16.8945 16.5156 16.9922 15.75 17C14.7734 17 13.8398 16.8359 12.9492 16.5078C12.0586 16.1797 11.2344 15.707 10.4766 15.0898L1.27734 24.2773C1.12891 24.4258 0.953125 24.5 0.75 24.5C0.546875 24.5 0.371094 24.4258 0.222656 24.2773C0.0742187 24.1289 0 23.9531 0 23.75C0 23.5469 0.0742187 23.3711 0.222656 23.2227L9.41016 14.0234C8.79297 13.2734 8.32031 12.4531 7.99219 11.5625C7.66406 10.6719 7.5 9.73438 7.5 8.75C7.5 7.99219 7.59766 7.26172 7.79297 6.55859C7.98828 5.85547 8.26563 5.19922 8.625 4.58984C8.98437 3.98047 9.41406 3.42578 9.91406 2.92578C10.4141 2.42578 10.9727 1.99219 11.5898 1.625C12.207 1.25781 12.8633 0.980469 13.5586 0.792969C14.2539 0.605469 14.9844 0.507813 15.75 0.5ZM15.75 15.5C16.6797 15.5 17.5547 15.3242 18.375 14.9727C19.1953 14.6211 19.9102 14.1367 20.5195 13.5195C21.1289 12.9023 21.6094 12.1875 21.9609 11.375C22.3125 10.5625 22.4922 9.6875 22.5 8.75C22.5 7.82031 22.3242 6.94531 21.9727 6.125C21.6211 5.30469 21.1367 4.58984 20.5195 3.98047C19.9023 3.37109 19.1875 2.89062 18.375 2.53906C17.5625 2.1875 16.6875 2.00781 15.75 2C14.8203 2 13.9453 2.17578 13.125 2.52734C12.3047 2.87891 11.5898 3.36328 10.9805 3.98047C10.3711 4.59766 9.89062 5.3125 9.53906 6.125C9.1875 6.9375 9.00781 7.8125 9 8.75C9 9.67969 9.17578 10.5547 9.52734 11.375C9.87891 12.1953 10.3633 12.9102 10.9805 13.5195C11.5977 14.1289 12.3125 14.6094 13.125 14.9609C13.9375 15.3125 14.8125 15.4922 15.75 15.5Z" fill="#FF5F00"/>
</g>
<defs>
<clipPath id="clip0_2524_612">
<rect width="24" height="24" fill="white" transform="translate(0 0.5)"/>
</clipPath>
</defs>
</svg>
