<svg width="375" height="44" viewBox="0 0 375 44" fill="none" xmlns="http://www.w3.org/2000/svg">
<rect opacity="0.35" x="336.833" y="17.8333" width="21" height="10.3333" rx="2.16667" stroke="black"/>
<path opacity="0.4" d="M359.333 21V25C360.138 24.6612 360.661 23.8731 360.661 23C360.661 22.1269 360.138 21.3388 359.333 21" fill="black"/>
<rect x="338.333" y="19.3333" width="18" height="7.33333" rx="1.33333" fill="black"/>
<path fill-rule="evenodd" clip-rule="evenodd" d="M323.667 19.615C325.892 19.6151 328.031 20.4693 329.644 22.0008C329.765 22.1191 329.959 22.1176 330.079 21.9975L331.239 20.8272C331.3 20.7663 331.334 20.6837 331.333 20.5979C331.333 20.5121 331.298 20.4299 331.237 20.3697C327.005 16.3175 320.329 16.3175 316.097 20.3697C316.035 20.4299 316.001 20.512 316 20.5978C315.999 20.6837 316.033 20.7662 316.094 20.8272L317.255 21.9975C317.374 22.1178 317.568 22.1193 317.69 22.0008C319.302 20.4692 321.442 19.615 323.667 19.615ZM323.667 23.4226C324.889 23.4226 326.068 23.8765 326.974 24.6963C327.097 24.8126 327.29 24.8101 327.409 24.6906L328.569 23.5203C328.63 23.4589 328.663 23.3756 328.663 23.2891C328.662 23.2025 328.626 23.12 328.564 23.0598C325.805 20.4954 321.532 20.4954 318.773 23.0598C318.71 23.12 318.675 23.2026 318.674 23.2891C318.673 23.3757 318.707 23.459 318.768 23.5203L319.927 24.6906C320.047 24.8101 320.24 24.8126 320.362 24.6963C321.268 23.877 322.446 23.4231 323.667 23.4226ZM325.989 25.9845C325.991 26.0712 325.957 26.1549 325.895 26.2157L323.89 28.2377C323.831 28.2971 323.751 28.3306 323.667 28.3306C323.583 28.3306 323.503 28.2971 323.445 28.2377L321.439 26.2157C321.377 26.1549 321.343 26.0712 321.345 25.9844C321.347 25.8976 321.384 25.8154 321.449 25.7573C322.729 24.675 324.605 24.675 325.886 25.7573C325.95 25.8155 325.988 25.8977 325.989 25.9845Z" fill="black"/>
<path fill-rule="evenodd" clip-rule="evenodd" d="M310 17.6667H309C308.448 17.6667 308 18.1145 308 18.6667V27.3334C308 27.8857 308.448 28.3334 309 28.3334H310C310.552 28.3334 311 27.8857 311 27.3334V18.6667C311 18.1145 310.552 17.6667 310 17.6667ZM304.333 20.0001H305.333C305.886 20.0001 306.333 20.4478 306.333 21.0001V27.3334C306.333 27.8857 305.886 28.3334 305.333 28.3334H304.333C303.781 28.3334 303.333 27.8857 303.333 27.3334V21.0001C303.333 20.4478 303.781 20.0001 304.333 20.0001ZM300.667 22.3334H299.667C299.114 22.3334 298.667 22.7811 298.667 23.3334V27.3334C298.667 27.8857 299.114 28.3334 299.667 28.3334H300.667C301.219 28.3334 301.667 27.8857 301.667 27.3334V23.3334C301.667 22.7811 301.219 22.3334 300.667 22.3334ZM296 24.3334H295C294.448 24.3334 294 24.7811 294 25.3334V27.3334C294 27.8857 294.448 28.3334 295 28.3334H296C296.552 28.3334 297 27.8857 297 27.3334V25.3334C297 24.7811 296.552 24.3334 296 24.3334Z" fill="black"/>
<path d="M37.0807 28.2563C39.7687 28.2563 41.3654 26.1543 41.3654 22.5874C41.3654 19.0864 39.6662 17.1675 37.1393 17.1675C34.8395 17.1675 33.2135 18.7129 33.2135 20.8735C33.2135 22.9023 34.6784 24.3818 36.6925 24.3818C37.9303 24.3818 38.9337 23.8105 39.4318 22.8071H39.5563C39.5343 25.29 38.6481 26.7109 37.1027 26.7109C36.1945 26.7109 35.4694 26.2129 35.2423 25.4072H33.36C33.6676 27.1284 35.1471 28.2563 37.0807 28.2563ZM37.1466 22.9243C35.9162 22.9243 35.0665 22.0601 35.0665 20.8149C35.0665 19.6211 35.9601 18.7056 37.1539 18.7056C38.3478 18.7056 39.2413 19.6357 39.2413 20.8516C39.2413 22.0527 38.3698 22.9243 37.1466 22.9243ZM44.5165 22.7705C45.2123 22.7705 45.6884 22.2798 45.6884 21.6353C45.6884 20.9834 45.2123 20.5 44.5165 20.5C43.828 20.5 43.3446 20.9834 43.3446 21.6353C43.3446 22.2798 43.828 22.7705 44.5165 22.7705ZM44.5165 28.1465C45.2123 28.1465 45.6884 27.6558 45.6884 27.0039C45.6884 26.3594 45.2123 25.8687 44.5165 25.8687C43.828 25.8687 43.3446 26.3594 43.3446 27.0039C43.3446 27.6558 43.828 28.1465 44.5165 28.1465ZM52.6041 28H54.4132V25.9712H55.8414V24.4111H54.4132V17.4312H51.7472C50.3116 19.6138 48.8102 22.0454 47.4405 24.4258V25.9712H52.6041V28ZM49.191 24.3452C50.2238 22.5508 51.4469 20.5952 52.5309 18.9399H52.6334V24.4551H49.191V24.3452ZM59.93 28H61.8197V17.4312H59.9374L57.1761 19.3721V21.1519L59.8055 19.2915H59.93V28Z" fill="black"/>
</svg>
