<svg width="375" height="76" viewBox="0 0 375 76" fill="none" xmlns="http://www.w3.org/2000/svg">
<rect width="375" height="76" fill="url(#paint0_linear_2524_558)"/>
<g clip-path="url(#clip0_2524_558)">
<path d="M151.221 36.3844C151.221 36.6221 151.178 36.8454 151.091 37.0541C151.004 37.2628 150.879 37.4455 150.717 37.6021C150.554 37.7586 150.372 37.8804 150.169 37.9673C149.966 38.0543 149.742 38.1007 149.499 38.1065H140.427L142.871 40.5418C143.034 40.6984 143.158 40.8839 143.245 41.0984C143.332 41.313 143.376 41.5333 143.376 41.7595C143.376 41.9972 143.332 42.2204 143.245 42.4292C143.158 42.6379 143.034 42.8206 142.871 42.9771C142.709 43.1337 142.526 43.2554 142.324 43.3424C142.121 43.4294 141.897 43.4758 141.654 43.4816C141.428 43.4816 141.21 43.4381 141.001 43.3511C140.793 43.2641 140.604 43.1395 140.436 42.9771L135.087 37.6194C134.896 37.4281 134.76 37.231 134.678 37.028C134.597 36.8251 134.557 36.5873 134.557 36.3148C134.557 36.0887 134.606 35.877 134.704 35.6799C134.803 35.4828 134.931 35.3059 135.087 35.1494L140.436 29.7917C140.599 29.6293 140.787 29.5047 141.001 29.4177C141.216 29.3307 141.436 29.2872 141.663 29.2872C141.9 29.2872 142.123 29.3336 142.332 29.4264C142.541 29.5192 142.721 29.6438 142.871 29.8004C143.022 29.9569 143.144 30.1396 143.237 30.3483C143.33 30.5571 143.376 30.7803 143.376 31.018C143.376 31.2442 143.332 31.4616 143.245 31.6703C143.158 31.8791 143.034 32.0646 142.871 32.227L140.427 34.6623H149.499C149.737 34.6623 149.96 34.7058 150.169 34.7928C150.377 34.8797 150.56 35.0044 150.717 35.1667C150.873 35.3291 150.995 35.5117 151.082 35.7147C151.169 35.9176 151.215 36.1409 151.221 36.3844Z" fill="#EEEBE5"/>
</g>
<g clip-path="url(#clip1_2524_558)">
<path d="M146.779 43.0531C146.779 42.8154 146.822 42.5921 146.909 42.3834C146.996 42.1747 147.121 41.992 147.283 41.8355C147.446 41.6789 147.628 41.5571 147.831 41.4702C148.034 41.3832 148.258 41.3368 148.501 41.331L157.573 41.331L155.129 38.8957C154.966 38.7391 154.842 38.5536 154.755 38.3391C154.668 38.1245 154.624 37.9042 154.624 37.678C154.624 37.4403 154.668 37.2171 154.755 37.0083C154.842 36.7996 154.966 36.6169 155.129 36.4604C155.291 36.3038 155.474 36.1821 155.676 36.0951C155.879 36.0081 156.103 35.9617 156.346 35.9559C156.572 35.9559 156.79 35.9994 156.999 36.0864C157.207 36.1734 157.396 36.298 157.564 36.4604L162.913 41.8181C163.104 42.0094 163.24 42.2065 163.322 42.4095C163.403 42.6124 163.443 42.8502 163.443 43.1227C163.443 43.3488 163.394 43.5605 163.296 43.7576C163.197 43.9547 163.069 44.1316 162.913 44.2881L157.564 49.6458C157.401 49.8082 157.213 49.9328 156.999 50.0198C156.784 50.1068 156.564 50.1503 156.337 50.1503C156.1 50.1503 155.877 50.1039 155.668 50.0111C155.459 49.9183 155.279 49.7937 155.129 49.6371C154.978 49.4806 154.856 49.2979 154.763 49.0892C154.67 48.8804 154.624 48.6572 154.624 48.4195C154.624 48.1933 154.668 47.9759 154.755 47.7672C154.842 47.5584 154.966 47.3729 155.129 47.2105L157.573 44.7752L148.501 44.7752C148.263 44.7752 148.04 44.7317 147.831 44.6447C147.623 44.5578 147.44 44.4331 147.283 44.2708C147.127 44.1084 147.005 43.9258 146.918 43.7228C146.831 43.5199 146.785 43.2966 146.779 43.0531Z" fill="#EEEBE5"/>
</g>
<path d="M57.6667 47.3333V40.3333H62.3333V47.3333H68.1667V38H71.6667L60 27.5L48.3333 38H51.8333V47.3333H57.6667Z" fill="#005F59"/>
<g clip-path="url(#clip2_2524_558)">
<path d="M318 36.002C318.422 36.002 318.812 36.08 319.171 36.2362C319.53 36.3923 319.843 36.6031 320.108 36.8686C320.373 37.134 320.592 37.4541 320.764 37.8289C320.936 38.2036 321.014 38.594 320.998 39C320.998 39.4216 320.92 39.812 320.764 40.1711C320.608 40.5303 320.397 40.8426 320.131 41.108C319.866 41.3735 319.546 41.5921 319.171 41.7638C318.796 41.9356 318.406 42.0137 318 41.998C317.578 41.998 317.188 41.92 316.829 41.7638C316.47 41.6077 316.157 41.3969 315.892 41.1314C315.627 40.866 315.408 40.5459 315.236 40.1711C315.064 39.7964 314.986 39.406 315.002 39C315.002 38.5784 315.08 38.188 315.236 37.8289C315.392 37.4697 315.603 37.1574 315.869 36.892C316.134 36.6265 316.454 36.4079 316.829 36.2362C317.204 36.0644 317.594 35.9863 318 36.002ZM328.136 36.002C328.557 36.002 328.948 36.08 329.307 36.2362C329.666 36.3923 329.978 36.6031 330.244 36.8686C330.509 37.134 330.728 37.4541 330.899 37.8289C331.071 38.2036 331.149 38.594 331.134 39C331.134 39.4216 331.056 39.812 330.899 40.1711C330.743 40.5303 330.532 40.8426 330.267 41.108C330.002 41.3735 329.681 41.5921 329.307 41.7638C328.932 41.9356 328.542 42.0137 328.136 41.998C327.714 41.998 327.324 41.92 326.964 41.7638C326.605 41.6077 326.293 41.3969 326.028 41.1314C325.762 40.866 325.544 40.5459 325.372 40.1711C325.2 39.7964 325.122 39.406 325.138 39C325.138 38.5784 325.216 38.188 325.372 37.8289C325.528 37.4697 325.739 37.1574 326.004 36.892C326.27 36.6265 326.59 36.4079 326.964 36.2362C327.339 36.0644 327.73 35.9863 328.136 36.002ZM338.271 36.002C338.693 36.002 339.083 36.08 339.442 36.2362C339.801 36.3923 340.114 36.6031 340.379 36.8686C340.645 37.134 340.863 37.4541 341.035 37.8289C341.207 38.2036 341.285 38.594 341.269 39C341.269 39.4216 341.191 39.812 341.035 40.1711C340.879 40.5303 340.668 40.8426 340.403 41.108C340.137 41.3735 339.817 41.5921 339.442 41.7638C339.068 41.9356 338.677 42.0137 338.271 41.998C337.85 41.998 337.459 41.92 337.1 41.7638C336.741 41.6077 336.429 41.3969 336.163 41.1314C335.898 40.866 335.679 40.5459 335.507 40.1711C335.336 39.7964 335.258 39.406 335.273 39C335.273 38.5784 335.351 38.188 335.507 37.8289C335.664 37.4697 335.874 37.1574 336.14 36.892C336.405 36.6265 336.725 36.4079 337.1 36.2362C337.475 36.0644 337.865 35.9863 338.271 36.002Z" fill="#EEECE5"/>
</g>
<g clip-path="url(#clip3_2524_558)">
<path d="M241 29.0195C241.992 29.0195 242.977 29.0508 243.953 29.1133C244.93 29.1758 245.91 29.3125 246.895 29.5234C247.871 29.7266 248.754 30.0703 249.543 30.5547C250.332 31.0391 251.004 31.7031 251.559 32.5469C252.074 33.3438 252.441 34.2148 252.66 35.1602C252.879 36.1055 252.992 37.0508 253 37.9961C253 38.7617 252.941 39.4844 252.824 40.1641C252.707 40.8438 252.512 41.4922 252.238 42.1094C251.965 42.7266 251.613 43.3008 251.184 43.832C250.754 44.3633 250.23 44.8672 249.613 45.3438C248.41 46.2656 247.215 47.1758 246.027 48.0742C244.84 48.9727 243.645 49.8828 242.441 50.8047C242.285 50.9219 242.102 50.9805 241.891 50.9805C241.758 50.9805 241.641 50.9531 241.539 50.8984C241.437 50.8438 241.344 50.7734 241.258 50.6875C241.172 50.6016 241.109 50.5 241.07 50.3828C241.031 50.2656 241.008 50.1445 241 50.0195V46.7148H238.023C237.547 46.7148 237.062 46.6953 236.57 46.6562C236.078 46.6172 235.586 46.5469 235.094 46.4453C234.602 46.3437 234.129 46.2031 233.676 46.0234C233.223 45.8438 232.793 45.6172 232.387 45.3438C231.777 44.9219 231.258 44.4375 230.828 43.8906C230.398 43.3437 230.051 42.75 229.785 42.1094C229.52 41.4687 229.32 40.8047 229.187 40.1172C229.055 39.4297 228.992 38.7227 229 37.9961C229 37.0273 229.109 36.082 229.328 35.1602C229.547 34.2383 229.93 33.3672 230.477 32.5469C231.039 31.6953 231.703 31.0313 232.469 30.5547C233.234 30.0781 234.113 29.7344 235.105 29.5234C236.082 29.3203 237.059 29.1875 238.035 29.125C239.012 29.0625 240 29.0273 241 29.0195ZM241.75 40C241.953 40 242.129 39.9258 242.277 39.7773C242.426 39.6289 242.5 39.4531 242.5 39.25C242.5 39.0469 242.426 38.8711 242.277 38.7227C242.129 38.5742 241.953 38.5 241.75 38.5H235.75C235.547 38.5 235.371 38.5742 235.223 38.7227C235.074 38.8711 235 39.0469 235 39.25C235 39.4531 235.074 39.6289 235.223 39.7773C235.371 39.9258 235.547 40 235.75 40H241.75ZM246.203 37C246.43 37 246.617 36.9336 246.766 36.8008C246.914 36.668 246.992 36.4844 247 36.25C247 36.0234 246.926 35.8437 246.777 35.7109C246.629 35.5781 246.437 35.5078 246.203 35.5H235.797C235.578 35.5 235.391 35.5664 235.234 35.6992C235.078 35.832 235 36.0156 235 36.25C235 36.4766 235.078 36.6563 235.234 36.7891C235.391 36.9219 235.578 36.9922 235.797 37H246.203Z" fill="#EEECE5"/>
</g>
<defs>
<linearGradient id="paint0_linear_2524_558" x1="187.5" y1="1.10288e-06" x2="195" y2="126" gradientUnits="userSpaceOnUse">
<stop stop-color="#00BDB2"/>
<stop offset="1" stop-color="#C4E7B8"/>
</linearGradient>
<clipPath id="clip0_2524_558">
<rect width="17.8125" height="17.8125" fill="white" transform="translate(134 28)"/>
</clipPath>
<clipPath id="clip1_2524_558">
<rect width="17.8125" height="17.8125" fill="white" transform="translate(164 51.4375) rotate(180)"/>
</clipPath>
<clipPath id="clip2_2524_558">
<rect width="28" height="28" fill="white" transform="translate(315 24)"/>
</clipPath>
<clipPath id="clip3_2524_558">
<rect width="24" height="24" fill="white" transform="translate(229 28)"/>
</clipPath>
</defs>
</svg>
